<svg xmlns="http://www.w3.org/2000/svg" width="26" height="26" viewBox="0 0 26 26">
  <path id="icon-sun" d="M13,21a1,1,0,0,1,1,1v3a1,1,0,0,1-2,0V22A1,1,0,0,1,13,21ZM7.343,18.657a1,1,0,0,1,0,1.414L5.222,22.192a1,1,0,1,1-1.414-1.414l2.12-2.121a1,1,0,0,1,1.415,0Zm12.728,0,2.121,2.121a1,1,0,1,1-1.414,1.414l-2.121-2.12a1,1,0,1,1,1.414-1.415ZM13,8a5,5,0,1,1-5,5,5,5,0,0,1,5-5Zm12,4a1,1,0,0,1,0,2H22a1,1,0,0,1,0-2ZM4,12a1,1,0,0,1,0,2H1a1,1,0,0,1,0-2ZM22.192,3.808a1,1,0,0,1,0,1.414l-2.12,2.121a1,1,0,1,1-1.415-1.414l2.121-2.121a1,1,0,0,1,1.414,0Zm-16.97,0,2.121,2.12A1,1,0,1,1,5.93,7.344L3.808,5.222A1,1,0,1,1,5.222,3.808ZM13,0a1,1,0,0,1,1,1V4a1,1,0,0,1-2,0V1A1,1,0,0,1,13,0Z" fill="#fff" fill-rule="evenodd"/>
</svg>
